<svg width="160" height="40" viewBox="0 0 160 40" fill="none" xmlns="http://www.w3.org/2000/svg">
  <rect width="160" height="40" rx="8" fill="#0E7490"/>
  <path d="M24.58 25.52H20.3L18.92 28H14.58L22.1 12.92H26.86L34.36 28H29.94L28.54 25.52H24.58ZM23.46 23.36H29.66L26.56 17.36L23.46 23.36Z" fill="white"/>
  <path d="M46.84 21.12C46.84 26.08 43.34 28.92 38.68 28.92C33.96 28.92 30.5 26.08 30.5 21.12C30.5 16.16 34 13.24 38.68 13.24C43.34 13.24 46.84 16.16 46.84 21.12ZM34.94 21.12C34.94 23.84 36.74 25.4 38.68 25.4C40.62 25.4 42.36 23.84 42.36 21.12C42.36 18.4 40.62 16.84 38.68 16.84C36.74 16.84 34.94 18.4 34.94 21.12Z" fill="white"/>
  <path d="M48.74 13.52H53.02V24.8H60.28V28H48.74V13.52Z" fill="white"/>
  <path d="M61.34 13.52H72.7V16.72H65.62V19.16H71.5V22.16H65.62V24.8H72.92V28H61.34V13.52Z" fill="white"/>
  <path d="M83.06 13.52H86.94L93.28 28H88.68L87.58 25.28H82.38L81.28 28H76.74L83.06 13.52ZM86.02 22.48L84.96 19.86L83.9 22.48H86.02Z" fill="white"/>
  <path d="M95.84 13.52H100.12V24.8H107.38V28H95.84V13.52Z" fill="white"/>
  <path d="M109.64 13.52H120.92V16.72H113.84V19.16H119.64V22.16H113.84V24.8H121.12V28H109.64V13.52Z" fill="white"/>
  <path d="M122.12 13.52H127.12L130.24 20L133.36 13.52H138.24L132.92 24.16V28H127.54V24.16L122.12 13.52Z" fill="white"/>
</svg>
